<?xml version="1.0" standalone="no"?>
<!DOCTYPE svg PUBLIC "-//W3C//DTD SVG 20010904//EN"
 "http://www.w3.org/TR/2001/REC-SVG-20010904/DTD/svg10.dtd">
<svg version="1.0" xmlns="http://www.w3.org/2000/svg"
 width="155.000000pt" height="155.000000pt" viewBox="0 0 155.000000 155.000000"
 preserveAspectRatio="xMidYMid meet">
<metadata>
Created by potrace 1.16, written by Peter Selinger 2001-2019
</metadata>
<g transform="translate(0.000000,155.000000) scale(0.100000,-0.100000)"
fill="#000000" stroke="none">
<path d="M623 1473 c-10 -3 -13 -58 -13 -224 l0 -219 30 0 30 0 0 195 0 195
375 0 375 0 0 -303 c0 -282 -1 -305 -18 -320 -17 -15 -57 -17 -370 -17 l-352
0 0 -30 0 -31 365 3 365 3 32 33 33 32 3 331 c2 242 0 335 -9 345 -9 12 -80
14 -423 13 -226 0 -417 -3 -423 -6z"/>
<path d="M751 1356 c-7 -8 -11 -36 -9 -68 l3 -53 133 -3 c127 -2 134 -2 139
18 7 27 49 27 56 0 4 -17 14 -20 56 -20 50 0 51 -1 51 -29 0 -29 -2 -30 -52
-33 l-53 -3 0 -65 0 -65 53 -3 c50 -3 52 -4 52 -32 0 -28 -2 -29 -52 -32 l-53
-3 0 -65 0 -65 130 0 130 0 3 68 3 67 -51 0 c-49 0 -50 1 -50 30 0 29 1 30 50
30 l50 0 0 70 0 70 -50 0 c-49 0 -50 1 -50 30 0 29 1 30 50 30 l51 0 -3 68 -3
67 -130 0 c-127 0 -130 0 -133 -22 -2 -16 -10 -23 -25 -23 -13 0 -26 9 -32 23
-9 21 -16 22 -131 25 -96 2 -124 0 -133 -12z"/>
<path d="M349 1195 c-105 -57 -74 -228 46 -251 140 -26 223 164 106 243 -39
27 -111 30 -152 8z m126 -60 c50 -49 17 -135 -51 -135 -75 0 -110 82 -58 134
34 34 77 34 109 1z"/>
<path d="M725 1039 c-39 -34 -102 -76 -143 -95 -72 -34 -75 -34 -212 -34
l-138 0 -81 -92 c-44 -51 -81 -102 -81 -113 0 -24 59 -206 71 -220 6 -6 30 1
63 18 l55 26 3 -200 3 -201 33 -29 33 -30 122 3 122 3 3 341 2 340 73 34 c54
26 95 57 165 124 50 49 92 95 92 101 0 19 -75 85 -95 85 -11 0 -51 -28 -90
-61z m53 -86 c-44 -46 -89 -78 -153 -111 l-90 -47 -3 -338 -2 -337 -40 0 -40
0 -2 182 -3 183 -25 0 -25 0 -3 -182 c-3 -194 -4 -199 -50 -167 -22 15 -22 16
-22 324 0 169 -3 315 -6 324 -11 30 -39 16 -84 -41 -63 -80 -62 -76 -40 -129
16 -37 18 -49 8 -56 -22 -13 -24 -10 -48 66 -26 84 -32 68 60 174 l45 52 125
0 c121 0 128 1 210 35 58 24 107 55 155 95 54 45 72 56 83 48 10 -9 0 -24 -50
-75z"/>
<path d="M370 795 c0 -14 5 -25 10 -25 6 0 10 -37 10 -90 l0 -90 30 0 30 0 0
90 c0 53 4 90 10 90 6 0 10 11 10 25 0 23 -3 25 -50 25 -47 0 -50 -2 -50 -25z"/>
<path d="M828 495 c-38 -21 -58 -64 -58 -123 0 -34 6 -57 20 -75 l20 -26 -20
-33 c-15 -24 -20 -50 -20 -100 0 -66 1 -68 25 -68 23 0 25 3 25 51 0 77 29
118 83 119 17 0 38 -10 52 -25 21 -20 25 -34 25 -85 l0 -60 30 0 c30 0 30 0
30 59 0 50 4 62 26 85 34 34 77 34 109 1 21 -20 25 -34 25 -85 l0 -60 30 0 30
0 0 60 c0 51 4 65 25 85 32 33 78 33 110 0 21 -20 25 -34 25 -85 l0 -60 31 0
32 0 -5 71 c-4 51 -11 79 -27 100 l-22 29 23 31 c45 60 22 161 -43 195 -40 20
-108 18 -147 -6 -32 -20 -32 -20 -65 0 -43 26 -112 26 -156 -1 -32 -19 -34
-19 -52 -3 -27 24 -125 30 -161 9z m127 -60 c51 -50 18 -135 -52 -135 -42 0
-83 38 -83 75 0 35 50 85 85 85 14 0 37 -11 50 -25z m220 0 c51 -50 18 -135
-52 -135 -63 0 -106 75 -70 121 34 44 87 50 122 14z m204 10 c46 -24 55 -74
20 -119 -29 -37 -89 -37 -118 0 -35 45 -25 96 24 122 27 15 41 15 74 -3z"/>
</g>
</svg>
