<?xml version="1.0" standalone="no"?>
<!DOCTYPE svg PUBLIC "-//W3C//DTD SVG 20010904//EN"
 "http://www.w3.org/TR/2001/REC-SVG-20010904/DTD/svg10.dtd">
<svg version="1.0" xmlns="http://www.w3.org/2000/svg"
 width="155.000000pt" height="155.000000pt" viewBox="0 0 155.000000 155.000000"
 preserveAspectRatio="xMidYMid meet">
<metadata>
Created by potrace 1.16, written by Peter Selinger 2001-2019
</metadata>
<g transform="translate(0.000000,155.000000) scale(0.100000,-0.100000)"
fill="#000000" stroke="none">
<path d="M170 1360 c-18 -18 -20 -33 -20 -190 l0 -170 30 0 30 0 2 -412 3
-413 563 -3 562 -2 0 414 0 415 33 3 32 3 3 161 c2 150 1 162 -18 187 l-21 27
-590 0 c-576 0 -589 0 -609 -20z m1180 -170 l0 -140 -575 0 -575 0 0 133 c0
74 3 137 7 140 3 4 262 7 575 7 l568 0 0 -140z m-60 -530 l0 -340 -515 0 -515
0 0 340 0 340 515 0 515 0 0 -340z m0 -415 l0 -25 -515 0 -515 0 0 25 0 25
515 0 515 0 0 -25z"/>
<path d="M534 1281 c-63 -38 -70 -128 -13 -175 l31 -26 219 0 c233 0 265 6
289 49 13 26 13 84 -1 115 -23 49 -58 56 -286 56 -186 0 -211 -2 -239 -19z
m449 -42 c42 -23 49 -57 17 -89 -19 -19 -33 -20 -220 -20 -200 0 -201 0 -225
25 -14 13 -25 29 -25 35 0 6 11 22 25 35 24 25 26 25 215 25 125 0 199 -4 213
-11z"/>
</g>
</svg>
