<?xml version="1.0" standalone="no"?>
<!DOCTYPE svg PUBLIC "-//W3C//DTD SVG 20010904//EN"
 "http://www.w3.org/TR/2001/REC-SVG-20010904/DTD/svg10.dtd">
<svg version="1.0" xmlns="http://www.w3.org/2000/svg"
 width="155.000000pt" height="155.000000pt" viewBox="0 0 155.000000 155.000000"
 preserveAspectRatio="xMidYMid meet">
<metadata>
Created by potrace 1.16, written by Peter Selinger 2001-2019
</metadata>
<g transform="translate(0.000000,155.000000) scale(0.100000,-0.100000)"
fill="#ffffff" stroke="none">
<path d="M655 1385 c-41 -16 -89 -55 -108 -90 -10 -18 -15 -60 -33 -303 -6
-72 -5 -74 45 -176 48 -99 62 -154 43 -182 -4 -6 -54 -37 -112 -69 -58 -32
-116 -67 -129 -79 -39 -35 -61 -94 -61 -167 0 -55 3 -69 23 -87 58 -55 190
-77 462 -77 240 0 351 15 430 58 l40 22 3 75 c2 41 0 85 -3 97 -12 48 -68 94
-186 154 -65 32 -123 67 -129 78 -18 34 -11 74 20 121 16 25 30 50 30 57 0 7
15 29 33 49 31 36 32 41 30 113 -1 42 -5 124 -10 183 -11 125 -35 173 -106
210 -55 29 -220 36 -282 13z m256 -61 c56 -33 74 -76 74 -174 0 -50 5 -94 13
-107 20 -36 15 -100 -10 -125 -13 -13 -33 -45 -45 -71 -13 -27 -32 -61 -43
-77 -29 -40 -28 -137 1 -174 12 -15 74 -53 138 -85 151 -77 166 -92 166 -179
l0 -67 -65 -22 c-184 -61 -615 -54 -756 13 -31 15 -34 20 -34 59 0 93 27 126
160 197 52 28 107 62 123 76 24 23 27 32 27 94 0 57 -4 74 -29 114 -17 25 -33
60 -37 77 -3 17 -13 37 -20 45 -16 15 -19 112 -5 127 5 6 11 56 13 112 3 100
4 103 36 136 44 46 81 57 178 53 59 -2 90 -8 115 -22z"/>
</g>
</svg>
