<?xml version="1.0" standalone="no"?>
<!DOCTYPE svg PUBLIC "-//W3C//DTD SVG 20010904//EN"
 "http://www.w3.org/TR/2001/REC-SVG-20010904/DTD/svg10.dtd">
<svg version="1.0" xmlns="http://www.w3.org/2000/svg"
 width="155.000000pt" height="155.000000pt" viewBox="0 0 155.000000 155.000000"
 preserveAspectRatio="xMidYMid meet">
<metadata>
Created by potrace 1.16, written by Peter Selinger 2001-2019
</metadata>
<g transform="translate(0.000000,155.000000) scale(0.100000,-0.100000)"
fill="#000000" stroke="none">
<path d="M357 1473 c-4 -3 -7 -129 -7 -280 l0 -273 -94 0 c-86 0 -97 -2 -124
-25 -47 -39 -53 -66 -50 -225 l3 -145 693 -3 692 -2 0 164 0 163 -27 28 c-38
38 -62 45 -147 45 l-73 0 -6 100 c-3 70 -11 111 -24 134 -10 19 -66 91 -124
159 -149 174 -131 167 -450 167 -141 0 -259 -3 -262 -7z m475 -155 l3 -113
131 -5 131 -5 26 -31 c31 -37 46 -96 47 -181 l0 -63 -385 0 -385 0 0 255 0
255 215 0 214 0 3 -112z m166 -6 l55 -62 -87 0 -86 0 0 86 0 87 32 -25 c18
-14 56 -52 86 -86z m393 -463 l29 -20 0 -130 0 -129 -645 0 -645 0 0 118 c0
117 8 149 44 174 6 4 276 8 599 8 579 0 589 0 618 -21z"/>
<path d="M1205 806 c-57 -25 -75 -117 -31 -161 67 -67 176 -27 176 65 0 54
-14 79 -55 96 -41 17 -51 17 -90 0z"/>
<path d="M440 350 l0 -120 40 0 40 0 0 120 0 120 -40 0 -40 0 0 -120z"/>
<path d="M610 270 l0 -200 40 0 40 0 0 200 0 200 -40 0 -40 0 0 -200z"/>
<path d="M790 350 l0 -120 35 0 35 0 0 120 0 120 -35 0 -35 0 0 -120z"/>
<path d="M960 350 l0 -120 40 0 40 0 0 120 0 120 -40 0 -40 0 0 -120z"/>
</g>
</svg>
