<?xml version="1.0" standalone="no"?>
<!DOCTYPE svg PUBLIC "-//W3C//DTD SVG 20010904//EN"
 "http://www.w3.org/TR/2001/REC-SVG-20010904/DTD/svg10.dtd">
<svg version="1.0" xmlns="http://www.w3.org/2000/svg"
 width="155.000000pt" height="155.000000pt" viewBox="0 0 155.000000 155.000000"
 preserveAspectRatio="xMidYMid meet">
<metadata>
Created by potrace 1.16, written by Peter Selinger 2001-2019
</metadata>
<g transform="translate(0.000000,155.000000) scale(0.100000,-0.100000)"
fill="#000000" stroke="none">
<path d="M701 1405 c-16 -14 -33 -35 -36 -45 -6 -19 -16 -20 -141 -20 -134 0
-134 0 -166 -29 l-33 -29 -3 -541 c-3 -595 -4 -584 58 -616 43 -22 747 -22
790 0 63 32 60 7 60 603 l0 544 -34 34 -34 34 -135 0 c-126 0 -136 1 -142 20
-12 37 -63 70 -110 70 -32 0 -51 -7 -74 -25z m116 -47 c12 -13 23 -32 25 -43
2 -15 13 -21 43 -25 38 -5 40 -7 43 -43 l3 -38 -153 3 -153 3 0 35 c0 34 1 35
43 38 34 3 42 7 42 23 0 25 43 69 68 69 10 0 28 -10 39 -22z m-247 -88 c0 -17
-8 -19 -77 -22 l-78 -3 0 -520 0 -520 360 0 360 0 3 523 2 522 -80 0 c-73 0
-80 2 -80 20 0 18 7 20 74 20 59 0 78 -4 100 -21 l26 -20 0 -519 c0 -495 -1
-519 -19 -541 l-19 -24 -367 0 -367 0 -19 24 c-18 22 -19 46 -19 538 l0 514
25 24 c21 22 33 25 100 25 68 0 75 -2 75 -20z m23 -96 c30 -25 30 -25 195 -22
158 3 165 4 180 26 12 18 24 22 68 22 l54 0 0 -475 0 -475 -315 0 -315 0 0
475 0 475 51 0 c40 0 58 -5 82 -26z"/>
<path d="M587 1092 c-24 -26 -21 -77 5 -102 20 -18 35 -20 185 -20 150 0 165
2 183 20 26 26 26 81 2 103 -16 14 -44 17 -189 17 -152 0 -172 -2 -186 -18z"/>
<path d="M504 805 c-13 -32 6 -35 242 -35 l234 0 0 25 0 25 -235 0 c-197 0
-237 -2 -241 -15z"/>
<path d="M504 715 c-12 -31 7 -35 161 -35 155 0 170 4 157 38 -7 19 -311 17
-318 -3z"/>
<path d="M504 625 c-13 -32 6 -35 242 -35 l234 0 0 25 0 25 -235 0 c-197 0
-237 -2 -241 -15z"/>
<path d="M507 543 c-4 -3 -7 -15 -7 -25 0 -17 11 -18 159 -18 88 0 162 4 165
9 4 5 3 16 0 25 -5 14 -28 16 -158 16 -84 0 -156 -3 -159 -7z"/>
<path d="M507 454 c-4 -4 -7 -16 -7 -26 0 -17 14 -18 241 -18 l240 0 -3 23 -3
22 -231 3 c-127 1 -233 -1 -237 -4z"/>
<path d="M507 363 c-4 -3 -7 -15 -7 -25 0 -17 11 -18 159 -18 161 0 186 5 161
35 -10 12 -43 15 -160 15 -80 0 -150 -3 -153 -7z"/>
</g>
</svg>
