<?xml version="1.0" standalone="no"?>
<!DOCTYPE svg PUBLIC "-//W3C//DTD SVG 20010904//EN"
 "http://www.w3.org/TR/2001/REC-SVG-20010904/DTD/svg10.dtd">
<svg version="1.0" xmlns="http://www.w3.org/2000/svg"
 width="155.000000pt" height="155.000000pt" viewBox="0 0 155.000000 155.000000"
 preserveAspectRatio="xMidYMid meet">
<metadata>
Created by potrace 1.16, written by Peter Selinger 2001-2019
</metadata>
<g transform="translate(0.000000,155.000000) scale(0.100000,-0.100000)"
fill="#000000" stroke="none">
<path d="M151 1264 c-20 -26 -21 -37 -21 -428 0 -448 -1 -438 67 -450 33 -5
40 -11 55 -45 22 -54 68 -81 137 -81 68 0 114 27 137 81 l18 39 231 0 231 0
18 -39 c23 -54 69 -81 137 -81 69 0 115 27 137 80 17 39 18 40 70 40 l52 0 0
270 0 270 -101 112 c-55 62 -113 118 -127 125 -16 7 -73 12 -134 13 l-108 0 0
34 c0 19 -9 45 -21 60 l-20 26 -369 0 -369 0 -20 -26z m737 -36 c9 -9 12 -84
12 -275 l0 -263 -360 0 -360 0 0 70 0 70 148 0 c81 0 153 4 160 9 8 5 12 17
10 27 -3 18 -16 19 -161 22 l-157 3 0 24 0 25 114 0 c95 0 115 3 120 16 3 9 4
20 0 25 -3 5 -57 9 -120 9 l-114 0 0 113 c0 75 4 117 12 125 17 17 679 17 696
0z m286 -124 c37 -14 11 -23 -71 -26 l-88 -3 0 -150 0 -150 178 -3 177 -2 0
-50 0 -49 -62 -3 c-55 -3 -63 -5 -63 -23 0 -18 8 -20 63 -23 l62 -3 0 -89 0
-90 -27 0 c-23 1 -32 9 -48 43 -25 52 -72 81 -135 81 -63 0 -110 -29 -135 -81
-16 -34 -25 -42 -47 -43 l-28 0 0 335 0 335 104 0 c57 0 111 -3 120 -6z m130
-144 c55 -59 66 -76 66 -105 l0 -35 -155 0 -155 0 0 105 0 105 89 0 89 0 66
-70z m-404 -420 l0 -100 -178 0 -177 0 -20 42 c-26 53 -71 80 -134 81 -64 1
-110 -27 -136 -81 -16 -34 -24 -42 -45 -39 -25 2 -25 4 -28 100 l-3 97 361 0
360 0 0 -100z m-461 -44 c30 -16 51 -53 51 -92 0 -35 -59 -94 -94 -94 -93 0
-140 104 -75 169 34 35 73 40 118 17z m770 0 c91 -47 50 -186 -55 -186 -37 0
-94 60 -94 97 1 79 78 125 149 89z"/>
</g>
</svg>
