<?xml version="1.0" standalone="no"?>
<!DOCTYPE svg PUBLIC "-//W3C//DTD SVG 20010904//EN"
 "http://www.w3.org/TR/2001/REC-SVG-20010904/DTD/svg10.dtd">
<svg version="1.0" xmlns="http://www.w3.org/2000/svg"
 width="127.000000pt" height="127.000000pt" viewBox="0 0 127.000000 127.000000"
 preserveAspectRatio="xMidYMid meet">
<metadata>
Created by potrace 1.16, written by Peter Selinger 2001-2019
</metadata>
<g transform="translate(0.000000,127.000000) scale(0.100000,-0.100000)"
fill="#000000" stroke="none">
<path d="M130 1110 c-6 -12 -9 -74 -8 -157 3 -135 4 -138 26 -141 l22 -3 0
-340 0 -339 470 0 470 0 0 339 0 340 23 3 c21 3 22 6 25 142 2 119 0 141 -14
157 -16 18 -42 19 -510 19 -482 0 -494 0 -504 -20z m980 -140 l0 -110 -470 0
-470 0 0 110 0 110 470 0 470 0 0 -110z m-50 -435 l0 -275 -420 0 -420 0 0
275 0 275 420 0 420 0 0 -275z m0 -340 c0 -13 -53 -15 -420 -15 -367 0 -420 2
-420 15 0 13 53 15 420 15 367 0 420 -2 420 -15z"/>
<path d="M463 1063 c-32 -6 -73 -59 -73 -95 0 -19 10 -39 29 -59 l29 -29 192
0 c189 0 191 0 215 25 17 17 25 35 25 60 0 90 -37 105 -242 104 -84 -1 -163
-4 -175 -6z m348 -53 c24 -13 26 -65 3 -74 -9 -3 -92 -6 -185 -6 l-169 0 -12
26 c-11 23 -10 29 11 45 20 17 41 19 178 19 87 0 163 -4 174 -10z"/>
<path d="M377 713 c-4 -3 -7 -64 -7 -133 0 -96 3 -130 14 -139 9 -8 87 -11
262 -9 l249 3 0 140 0 140 -256 3 c-140 1 -258 -1 -262 -5z m473 -138 l0 -95
-215 0 -215 0 0 95 0 95 215 0 215 0 0 -95z"/>
<path d="M514 556 c-12 -32 7 -36 162 -36 l155 0 -3 23 c-3 22 -6 22 -156 25
-127 2 -153 0 -158 -12z"/>
</g>
</svg>
