<?xml version="1.0" standalone="no"?>
<!DOCTYPE svg PUBLIC "-//W3C//DTD SVG 20010904//EN"
 "http://www.w3.org/TR/2001/REC-SVG-20010904/DTD/svg10.dtd">
<svg version="1.0" xmlns="http://www.w3.org/2000/svg"
 width="155.000000pt" height="155.000000pt" viewBox="0 0 155.000000 155.000000"
 preserveAspectRatio="xMidYMid meet">
<metadata>
Created by potrace 1.16, written by Peter Selinger 2001-2019
</metadata>
<g transform="translate(0.000000,155.000000) scale(0.100000,-0.100000)"
fill="#000000" stroke="none">
<path d="M148 1354 c-15 -8 -32 -23 -38 -34 -14 -26 -14 -864 0 -891 25 -45
51 -49 355 -49 l285 0 0 -70 0 -70 -114 0 c-63 0 -121 -3 -130 -6 -21 -8 -21
-40 0 -48 24 -9 527 -7 542 3 8 5 12 17 10 27 -3 17 -15 19 -131 22 l-127 3 0
69 0 69 301 3 301 3 24 28 24 28 0 435 0 436 -29 29 -29 29 -609 0 c-517 -1
-612 -3 -635 -16z m1234 -51 c17 -15 18 -42 18 -429 l0 -413 -22 -15 c-20 -14
-94 -16 -603 -16 -509 0 -583 2 -603 16 l-22 15 0 414 0 414 22 15 c20 14 94
16 607 16 530 0 586 -2 603 -17z"/>
<path d="M683 1061 c-98 -45 -118 -171 -40 -249 29 -28 45 -36 86 -40 30 -2
64 1 82 8 29 12 32 11 74 -30 37 -37 46 -41 60 -30 22 18 19 26 -24 73 -30 33
-37 46 -30 62 4 11 8 43 8 70 1 65 -26 110 -82 135 -53 24 -81 25 -134 1z
m101 -45 c61 -26 83 -85 52 -145 -46 -88 -185 -51 -186 49 0 44 23 78 64 96
38 16 31 16 70 0z"/>
</g>
</svg>
